<?xml version="1.0" encoding="UTF-8"?>
<svg width="52px" height="52px" viewBox="0 0 52 52" version="1.1" xmlns="http://www.w3.org/2000/svg" xmlns:xlink="http://www.w3.org/1999/xlink">
    <!-- Generator: Sketch 48.2 (47327) - http://www.bohemiancoding.com/sketch -->
    <title>Bag</title>
    <desc>Created with Sketch.</desc>
    <defs></defs>
    <g id="Arion-ghost-tiles-02" stroke="none" stroke-width="1" fill="none" fill-rule="evenodd" transform="translate(-924.000000, -291.000000)">
        <g id="Kreditkort_01" transform="translate(903.000000, 234.000000)">
            <g id="Bag" transform="translate(21.000000, 57.000000)">
                <path d="M44.4166667,8.66666667 L36.8333333,8.66666667 L36.8333333,5.41666667 C36.8333333,2.431 34.4023333,0 31.4166667,0 L20.5833333,0 C17.5976667,0 15.1666667,2.431 15.1666667,5.41666667 L15.1666667,8.66666667 L7.58333333,8.66666667 C3.40166667,8.66666667 0,12.0683333 0,16.25 L0,44.4166667 C0,48.5983333 3.40166667,52 7.58333333,52 L44.4166667,52 C48.5983333,52 52,48.5983333 52,44.4166667 L52,16.25 C52,12.0683333 48.5983333,8.66666667 44.4166667,8.66666667 Z M6.5,49.7228333 C4.03216667,49.2201667 2.16666667,47.0296667 2.16666667,44.4166667 L2.16666667,16.25 C2.16666667,13.6348333 4.03216667,11.4465 6.5,10.9438333 L6.5,49.7228333 Z M17.3333333,5.41666667 C17.3333333,3.62483333 18.7915,2.16666667 20.5833333,2.16666667 L31.4166667,2.16666667 C33.2085,2.16666667 34.6666667,3.62483333 34.6666667,5.41666667 L34.6666667,8.66666667 L17.3333333,8.66666667 L17.3333333,5.41666667 Z M10.8333333,49.8333333 L8.66666667,49.8333333 L8.66666667,10.8333333 L10.8333333,10.8333333 L10.8333333,49.8333333 Z M39,49.8333333 L13,49.8333333 L13,10.8333333 L39,10.8333333 L39,49.8333333 Z M43.3333333,49.8333333 L41.1666667,49.8333333 L41.1666667,10.8333333 L43.3333333,10.8333333 L43.3333333,49.8333333 Z M49.8333333,44.4166667 C49.8333333,47.0318333 47.9678333,49.2201667 45.5,49.7228333 L45.5,10.9438333 C47.9678333,11.4465 49.8333333,13.637 49.8333333,16.25 L49.8333333,44.4166667 Z" id="Shape" fill="#0B45E6" fill-rule="nonzero"></path>
                <path d="M20.5833333,23.8333333 C18.7915,23.8333333 17.3333333,22.3751667 17.3333333,20.5833333 C17.3333333,18.7915 18.7915,17.3333333 20.5833333,17.3333333 C22.3751667,17.3333333 23.8333333,18.7915 23.8333333,20.5833333 C23.8333333,22.3751667 22.3751667,23.8333333 20.5833333,23.8333333 Z M20.5833333,19.5 C19.9853333,19.5 19.5,19.9853333 19.5,20.5833333 C19.5,21.1813333 19.9853333,21.6666667 20.5833333,21.6666667 C21.1813333,21.6666667 21.6666667,21.1813333 21.6666667,20.5833333 C21.6666667,19.9853333 21.1813333,19.5 20.5833333,19.5 Z" id="Combined-Shape" fill="#FE5A88"></path>
                <path d="M30.5153333,40.6835 L28.3486667,37.4335 C28.106,37.0695 28.106,36.595 28.3486667,36.231 L30.5153333,32.981 C30.9183333,32.3786667 31.915,32.3786667 32.318,32.981 L34.4846667,36.231 C34.7273333,36.595 34.7273333,37.0695 34.4846667,37.4335 L32.318,40.6835 C32.1165,40.9868333 31.7785,41.1666667 31.4166667,41.1666667 C31.0548333,41.1666667 30.7168333,40.9868333 30.5153333,40.6835 Z M31.4166667,35.5355 L30.5521667,36.8333333 L31.4166667,38.1311667 L32.2811667,36.8333333 L31.4166667,35.5355 Z" id="Combined-Shape" fill="#FE5A88"></path>
            </g>
        </g>
    </g>
</svg>