<svg id="Layer_1" data-name="Layer 1" xmlns="http://www.w3.org/2000/svg" xmlns:xlink="http://www.w3.org/1999/xlink" viewBox="0 0 170 170"><defs><style>.cls-1{fill:#fbd289;}.cls-2{fill:#fabf57;}.cls-3{fill:#fff;}.cls-4{fill:#0a45e6;}.cls-5{fill:#0b45e6;}.cls-6{opacity:0.5;fill:url(#linear-gradient);}</style><linearGradient id="linear-gradient" x1="20.16" y1="25.87" x2="141.46" y2="128.41" gradientUnits="userSpaceOnUse"><stop offset="0" stop-color="#4f79ed"/><stop offset="0.22" stop-color="#4773ec"/><stop offset="0.55" stop-color="#3263ea"/><stop offset="0.96" stop-color="#0f48e6"/><stop offset="0.99" stop-color="#0b45e6"/></linearGradient></defs><title>02_00_kort_kreditkort</title><path class="cls-1" d="M160.5,66.78v46.6a1.3,1.3,0,0,1-.1.52,1.42,1.42,0,0,1-1.33.91h-31.4v-.87H30.87a1.47,1.47,0,0,1-.11-.56V79.27h4.29V66.78H30.76V55.19H130.91A8.13,8.13,0,0,1,139,63.32v3.46Z"/><path class="cls-1" d="M160.5,37.45V49.64H30.76V37.45A1.43,1.43,0,0,1,32.2,36H159.07a1.44,1.44,0,0,1,1.32.87v0A1.62,1.62,0,0,1,160.5,37.45Z"/><path class="cls-2" d="M160.7,66.78v46.09a1.95,1.95,0,0,1-1.94,1.94H127.67v-.87H91.08l21.77-47.16,5.35-11.59h12.71A8.13,8.13,0,0,1,139,63.32v3.46Z"/><path class="cls-2" d="M160.7,38V49.64H120.76L127.05,36h31.72a1.93,1.93,0,0,1,1.62.87v0A2,2,0,0,1,160.7,38Z"/><path class="cls-3" d="M139,63.32v3.46H30.76V55.19H130.91A8.13,8.13,0,0,1,139,63.32Z"/><path class="cls-4" d="M17.43,55.19A8.13,8.13,0,0,0,9.3,63.32v62.53A8.13,8.13,0,0,0,17.43,134H69l7.26-15.72H21v-4.32H78.26L100,66.78l5.35-11.59ZM35.05,79.27H22.38V66.78H35.05Z"/><path class="cls-5" d="M139,63.32v62.53a8.13,8.13,0,0,1-8.13,8.13H69l7.26-15.72h51.4v-4.32H78.26L100,66.78l5.35-11.59h25.53A8.13,8.13,0,0,1,139,63.32Z"/><path class="cls-6" d="M139,63.32v62.53a8.13,8.13,0,0,1-8.13,8.13H69l7.26-15.72h51.4v-4.32H78.26L100,66.78l5.35-11.59h25.53A8.13,8.13,0,0,1,139,63.32Z"/></svg>