<?xml version="1.0" encoding="UTF-8"?>
<svg width="56px" height="35px" viewBox="0 0 56 35" version="1.1" xmlns="http://www.w3.org/2000/svg" xmlns:xlink="http://www.w3.org/1999/xlink">
    <!-- Generator: Sketch 48.2 (47327) - http://www.bohemiancoding.com/sketch -->
    <title>Take-off Plane</title>
    <desc>Created with Sketch.</desc>
    <defs></defs>
    <g id="Arion-ghost-tiles-03" stroke="none" stroke-width="1" fill="none" fill-rule="evenodd" transform="translate(-924.000000, -303.000000)">
        <g id="Kreditkort_01" transform="translate(903.000000, 234.000000)" fill-rule="nonzero">
            <g id="Take-off-Plane" transform="translate(21.000000, 68.000000)">
                <path d="M9.33333333,29 C2.989,29 0,28.769 0,26.6666667 C0,26.2116667 0,25.0613333 4.151,22.7443333 L0.196,16.813 C-0.112,16.351 -0.0513333333,15.735 0.343,15.3406667 L2.67633333,13.0073333 C3.031,12.6503333 3.57233333,12.564 4.02266667,12.788 L12.8333333,17.1956667 L19.3106667,13.957 C19.887,13.6676667 20.587,13.9033333 20.8763333,14.4773333 C21.1656667,15.0536667 20.93,15.7536667 20.3536667,16.043 L13.3536667,19.543 C13.0246667,19.7063333 12.6373333,19.7063333 12.3106667,19.543 L3.731,15.252 L2.66933333,16.3136667 L6.804,22.518 C6.98833333,22.7933333 7.04666667,23.1363333 6.96266667,23.4583333 C6.87866667,23.7803333 6.664,24.0486667 6.36766667,24.2026667 C4.998,24.9096667 3.626,25.766 2.86066667,26.368 C4.508,26.6666667 8.022,26.6666667 9.33333333,26.6666667 C17.1406667,26.6666667 53.6666667,12.3516667 53.6666667,8 C53.6666667,7.097 51.45,5.66666667 45.5,5.66666667 C39.4216667,5.66666667 32.0623333,9.02433333 31.9876667,9.05933333 C31.402,9.32766667 30.709,9.071 30.4383333,8.48766667 C30.1676667,7.902 30.4243333,7.209 31.01,6.93833333 C31.3296667,6.79366667 38.9036667,3.33333333 45.5,3.33333333 C54.978,3.33333333 56,6.59533333 56,8 C56,15.3383333 15.5446667,29 9.33333333,29 Z" id="Shape" fill="#0B45E6"></path>
                <path d="M22.1666667,17.3333333 C21.9683333,17.3333333 21.7676667,17.282 21.588,17.1793333 L5.25466667,7.846 C4.93966667,7.66633333 4.725,7.349 4.676,6.98733333 C4.627,6.62566667 4.75066667,6.264 5.00733333,6.00733333 L9.674,1.34066667 C9.97966667,1.03733333 10.423,0.925333333 10.8336667,1.049 L34.167,8.049 C34.6103333,8.182 34.9323333,8.56233333 34.9906667,9.022 C35.0466667,9.47933333 34.8296667,9.92966667 34.433,10.1676667 L22.7663333,17.1676667 C22.582,17.2773333 22.3743333,17.3333333 22.1666667,17.3333333 Z M7.73733333,6.579 L22.1503333,14.8156667 L30.9656667,9.526 L10.8336667,3.485 L7.73733333,6.579 Z" id="Shape" fill="#0B45E6"></path>
                <path d="M45.5023333,9.162 C45.1966667,9.162 44.891,9.043 44.6646667,8.80733333 C44.219,8.34533333 44.226,7.615 44.6833333,7.16466667 C44.7953333,7.05733333 47.4646667,4.5 52.5,4.5 C53.144,4.5 53.6666667,5.02266667 53.6666667,5.66666667 C53.6666667,6.31066667 53.144,6.83333333 52.5,6.83333333 C48.4656667,6.83333333 46.396,8.75833333 46.3096667,8.84 C46.0833333,9.05466667 45.7916667,9.162 45.5023333,9.162 Z" id="Shape" fill="#FE5A88"></path>
                <path d="M40.8333333,36 C40.4926667,36 40.1566667,35.8506667 39.9303333,35.5706667 L29.4303333,22.7373333 C29.022,22.2403333 29.0966667,21.5053333 29.596,21.0946667 C30.093,20.6863333 30.828,20.7586667 31.2386667,21.2603333 L41.1483333,33.3703333 L44.1443333,31.8723333 L40.873,18.78 C40.7166667,18.1546667 41.097,17.5223333 41.7223333,17.366 C42.3406667,17.2096667 42.98,17.5876667 43.1363333,18.2153333 L46.6363333,32.2153333 C46.7693333,32.745 46.515,33.2956667 46.0273333,33.5406667 L41.3606667,35.874 C41.188,35.9603333 41.0106667,36 40.8333333,36 Z" id="Shape" fill="#0B45E6"></path>
            </g>
        </g>
    </g>
</svg>