<svg id="Layer_1" data-name="Layer 1" xmlns="http://www.w3.org/2000/svg" xmlns:xlink="http://www.w3.org/1999/xlink" viewBox="0 0 170 170"><defs><style>.cls-1{fill:#0a45e6;}.cls-2,.cls-3,.cls-4,.cls-5{opacity:0.5;}.cls-2{fill:url(#linear-gradient);}.cls-3{fill:url(#linear-gradient-2);}.cls-4{fill:url(#linear-gradient-3);}.cls-5{fill:url(#linear-gradient-4);}.cls-6{fill:url(#linear-gradient-5);}.cls-7{fill:url(#linear-gradient-6);}.cls-8{fill:#fff;}.cls-9{fill:#fbd289;}.cls-10{fill:#fabf57;}</style><linearGradient id="linear-gradient" x1="90.68" y1="112.01" x2="96.93" y2="112.01" gradientUnits="userSpaceOnUse"><stop offset="0" stop-color="#4f79ed"/><stop offset="0.22" stop-color="#4773ec"/><stop offset="0.55" stop-color="#3263ea"/><stop offset="0.96" stop-color="#0f48e6"/><stop offset="0.99" stop-color="#0b45e6"/></linearGradient><linearGradient id="linear-gradient-2" x1="108.85" y1="114.11" x2="111.8" y2="114.11" xlink:href="#linear-gradient"/><linearGradient id="linear-gradient-3" x1="107.86" y1="106.91" x2="112.78" y2="106.91" xlink:href="#linear-gradient"/><linearGradient id="linear-gradient-4" x1="98.4" y1="85" x2="139.04" y2="85" xlink:href="#linear-gradient"/><linearGradient id="linear-gradient-5" x1="90.76" y1="40.82" x2="168.19" y2="106.28" xlink:href="#linear-gradient"/><linearGradient id="linear-gradient-6" x1="98.93" y1="8.01" x2="156.05" y2="56.3" xlink:href="#linear-gradient"/></defs><title>02_00_kort_debetkort</title><path class="cls-1" d="M111.8,114.81h-3a10.75,10.75,0,0,0,1.47-1.39A9.75,9.75,0,0,0,111.8,114.81Z"/><ellipse class="cls-1" cx="110.32" cy="106.91" rx="2.46" ry="6.51"/><path class="cls-1" d="M139,63.32v51.49H123.72a9.89,9.89,0,1,0-13.4-14.41A9.85,9.85,0,0,0,98.4,98.09,9.91,9.91,0,0,0,93,106.91a9.74,9.74,0,0,0,.27,2.31,9.89,9.89,0,0,0,3.67,5.59H32.2a1.43,1.43,0,0,1-1.44-1.43V86.82h54.5v-1.3H30.76V70.9H55V69.6H30.76V55.19H130.91A8.13,8.13,0,0,1,139,63.32Z"/><path class="cls-1" d="M32.2,36h94.85l-6.29,13.62h-90V37.45A1.43,1.43,0,0,1,32.2,36Z"/><path class="cls-2" d="M96.93,114.81H90.68l2.58-5.59A9.89,9.89,0,0,0,96.93,114.81Z"/><path class="cls-3" d="M111.8,114.81h-3a10.75,10.75,0,0,0,1.47-1.39A9.75,9.75,0,0,0,111.8,114.81Z"/><ellipse class="cls-4" cx="110.32" cy="106.91" rx="2.46" ry="6.51"/><path class="cls-5" d="M139,63.32v51.49H123.72a9.89,9.89,0,1,0-13.4-14.41A9.85,9.85,0,0,0,98.4,98.09l14.45-31.31,5.35-11.59h12.71A8.13,8.13,0,0,1,139,63.32Z"/><path class="cls-6" d="M139,114.81h19.72a1.95,1.95,0,0,0,1.94-1.94V66.78H139Z"/><path class="cls-7" d="M160.4,36.91v0a1.93,1.93,0,0,0-1.62-.87H127.05l-6.29,13.62H160.7V38A2,2,0,0,0,160.4,36.91Z"/><path class="cls-8" d="M139,63.32v3.46H30.76V55.19H130.91A8.13,8.13,0,0,1,139,63.32Z"/><path class="cls-9" d="M17.43,55.19A8.13,8.13,0,0,0,9.3,63.32v62.53A8.13,8.13,0,0,0,17.43,134H74.35l8.74-19.17,21.89-48,5.28-11.59ZM22.38,69.6H55v1.3H22.38Zm0,15.92H85.26v1.3H22.38Z"/><path class="cls-10" d="M139,63.32v62.53a8.13,8.13,0,0,1-8.13,8.13H67.66l8.85-19.17,22.16-48L104,55.19h26.89A8.13,8.13,0,0,1,139,63.32Z"/></svg>