<svg id="Layer_1" data-name="Layer 1" xmlns="http://www.w3.org/2000/svg" xmlns:xlink="http://www.w3.org/1999/xlink" viewBox="0 0 170 170"><defs><style>.cls-1{fill:#0a45e6;}.cls-2{opacity:0.5;fill:url(#linear-gradient);}.cls-3{fill:#fbd289;}.cls-4{fill:#2358e9;}</style><linearGradient id="linear-gradient" x1="90.68" y1="75.41" x2="160.7" y2="75.41" gradientUnits="userSpaceOnUse"><stop offset="0" stop-color="#4f79ed"/><stop offset="0.22" stop-color="#4773ec"/><stop offset="0.55" stop-color="#3263ea"/><stop offset="0.96" stop-color="#0f48e6"/><stop offset="0.99" stop-color="#0b45e6"/></linearGradient></defs><title>02_00_kort_gjafakort</title><rect class="cls-1" x="30.76" y="36.02" width="129.74" height="78.8" rx="1.44" ry="1.44"/><path class="cls-2" d="M160.7,38v74.92a1.94,1.94,0,0,1-1.94,1.94H90.68L127.05,36h31.72A1.92,1.92,0,0,1,160.7,38Z"/><rect class="cls-3" x="30.76" y="49.64" width="129.94" height="17.13"/><path class="cls-1" d="M110.26,55.19,74.35,134H17.43a8.13,8.13,0,0,1-8.13-8.13V63.32a8.13,8.13,0,0,1,8.13-8.13Z"/><path class="cls-4" d="M139,63.32v62.53a8.13,8.13,0,0,1-8.13,8.13H67.66L104,55.19h26.89A8.13,8.13,0,0,1,139,63.32Z"/><rect class="cls-3" x="53.77" y="36.02" width="12.78" height="97.97"/><path class="cls-3" d="M29,60.88s19.77,4.8,27.76,14.29H64s10.59-12.69,28-14.29c3,5.38,2.8,17.38,2.8,17.38H25.41A28.82,28.82,0,0,1,29,60.88Z"/><rect class="cls-3" x="9.3" y="72.87" width="129.74" height="12.98"/><polygon class="cls-3" points="29.41 93.44 41.79 80.66 58.37 80.66 56.57 87.05 29.41 114.81 29.41 93.44"/><polygon class="cls-3" points="92.98 93.44 80.6 80.66 64.02 80.66 65.82 87.05 92.98 114.81 92.98 93.44"/></svg>