<?xml version="1.0" encoding="UTF-8"?>
<svg width="50px" height="50px" viewBox="0 0 50 50" version="1.1" xmlns="http://www.w3.org/2000/svg" xmlns:xlink="http://www.w3.org/1999/xlink">
    <!-- Generator: Sketch 50 (54983) - http://www.bohemiancoding.com/sketch -->
    <title>flags / us</title>
    <desc>Created with Sketch.</desc>
    <defs>
        <rect id="path-1" x="0" y="0" width="50" height="50" rx="5"></rect>
        <linearGradient x1="50%" y1="0%" x2="50%" y2="100%" id="linearGradient-3">
            <stop stop-color="#FFFFFF" offset="0%"></stop>
            <stop stop-color="#F0F0F0" offset="100%"></stop>
        </linearGradient>
    </defs>
    <g id="flags-/-us" stroke="none" stroke-width="1" fill="none" fill-rule="evenodd">
        <g id="US">
            <mask id="mask-2" fill="white">
                <use xlink:href="#path-1"></use>
            </mask>
            <use id="Mask" fill="#FFFFFF" xlink:href="#path-1"></use>
            <path d="M0,0 L50,0 L50,3 L0,3 L0,0 Z M0,7 L50,7 L50,10 L0,10 L0,7 Z M0,13 L50,13 L50,16 L0,16 L0,13 Z M0,20 L50,20 L50,23 L0,23 L0,20 Z M0,27 L50,27 L50,30 L0,30 L0,27 Z M0,33 L50,33 L50,36 L0,36 L0,33 Z M0,40 L50,40 L50,43 L0,43 L0,40 Z M0,47 L50,47 L50,50 L0,50 L0,47 Z" id="Rectangle-511" fill="#FE5A88" mask="url(#mask-2)"></path>
            <rect id="Rectangle-511" fill="#0A45E6" mask="url(#mask-2)" x="0" y="0" width="30" height="23"></rect>
            <circle id="Oval-43" fill="url(#linearGradient-3)" mask="url(#mask-2)" cx="3" cy="4" r="1"></circle>
            <circle id="Oval-43-Copy-5" fill="url(#linearGradient-3)" mask="url(#mask-2)" cx="3" cy="12" r="1"></circle>
            <circle id="Oval-43-Copy-10" fill="url(#linearGradient-3)" mask="url(#mask-2)" cx="3" cy="20" r="1"></circle>
            <circle id="Oval-43-Copy" fill="url(#linearGradient-3)" mask="url(#mask-2)" cx="9" cy="4" r="1"></circle>
            <circle id="Oval-43-Copy-6" fill="url(#linearGradient-3)" mask="url(#mask-2)" cx="9" cy="12" r="1"></circle>
            <circle id="Oval-43-Copy-16" fill="url(#linearGradient-3)" mask="url(#mask-2)" cx="6" cy="8" r="1"></circle>
            <circle id="Oval-43-Copy-20" fill="url(#linearGradient-3)" mask="url(#mask-2)" cx="6" cy="16" r="1"></circle>
            <circle id="Oval-43-Copy-11" fill="url(#linearGradient-3)" mask="url(#mask-2)" cx="9" cy="20" r="1"></circle>
            <circle id="Oval-43-Copy-2" fill="url(#linearGradient-3)" mask="url(#mask-2)" cx="15" cy="4" r="1"></circle>
            <circle id="Oval-43-Copy-7" fill="url(#linearGradient-3)" mask="url(#mask-2)" cx="15" cy="12" r="1"></circle>
            <circle id="Oval-43-Copy-17" fill="url(#linearGradient-3)" mask="url(#mask-2)" cx="12" cy="8" r="1"></circle>
            <circle id="Oval-43-Copy-21" fill="url(#linearGradient-3)" mask="url(#mask-2)" cx="12" cy="16" r="1"></circle>
            <circle id="Oval-43-Copy-12" fill="url(#linearGradient-3)" mask="url(#mask-2)" cx="15" cy="20" r="1"></circle>
            <circle id="Oval-43-Copy-3" fill="url(#linearGradient-3)" mask="url(#mask-2)" cx="21" cy="4" r="1"></circle>
            <circle id="Oval-43-Copy-8" fill="url(#linearGradient-3)" mask="url(#mask-2)" cx="21" cy="12" r="1"></circle>
            <circle id="Oval-43-Copy-18" fill="url(#linearGradient-3)" mask="url(#mask-2)" cx="18" cy="8" r="1"></circle>
            <circle id="Oval-43-Copy-22" fill="url(#linearGradient-3)" mask="url(#mask-2)" cx="18" cy="16" r="1"></circle>
            <circle id="Oval-43-Copy-13" fill="url(#linearGradient-3)" mask="url(#mask-2)" cx="21" cy="20" r="1"></circle>
            <circle id="Oval-43-Copy-4" fill="url(#linearGradient-3)" mask="url(#mask-2)" cx="27" cy="4" r="1"></circle>
            <circle id="Oval-43-Copy-9" fill="url(#linearGradient-3)" mask="url(#mask-2)" cx="27" cy="12" r="1"></circle>
            <circle id="Oval-43-Copy-19" fill="url(#linearGradient-3)" mask="url(#mask-2)" cx="24" cy="8" r="1"></circle>
            <circle id="Oval-43-Copy-23" fill="url(#linearGradient-3)" mask="url(#mask-2)" cx="24" cy="16" r="1"></circle>
            <circle id="Oval-43-Copy-14" fill="url(#linearGradient-3)" mask="url(#mask-2)" cx="27" cy="20" r="1"></circle>
        </g>
    </g>
</svg>