<?xml version="1.0" encoding="UTF-8"?>
<svg width="44px" height="45px" viewBox="0 0 44 45" version="1.1" xmlns="http://www.w3.org/2000/svg" xmlns:xlink="http://www.w3.org/1999/xlink">
    <!-- Generator: Sketch 50 (54983) - http://www.bohemiancoding.com/sketch -->
    <title>blomid@3x</title>
    <desc>Created with Sketch.</desc>
    <defs></defs>
    <g id="Symbols" stroke="none" stroke-width="1" fill="none" fill-rule="evenodd">
        <g id="main-nav-/-default-gray" transform="translate(-142.000000, -24.000000)" fill="#E9E9E9">
            <g id="header" transform="translate(142.000000, 23.000000)">
                <g id="arion-logo-blue">
                    <g id="blomid" transform="translate(0.000000, 1.000000)">
                        <path d="M11.0590409,33.9375054 L11.0590409,23.0626797 C11.0590409,23.0377679 11.0440964,23.0153473 11.0208493,23.0053826 C10.9976022,22.9945875 10.9702038,23.0004002 10.9527685,23.0194993 L0.0183288534,33.9557741 C6.32747487e-05,33.9740427 -0.00491824671,34.0006153 0.00504479621,34.0238663 C0.0141775856,34.0471173 0.0374246857,34.0620644 0.062332293,34.0620644 L10.9345029,34.0620644 L10.9345029,44.9377205 C10.9345029,44.9626323 10.9494474,44.9858833 10.9726945,44.9950176 C10.9801668,44.9983392 10.9884694,45 10.9967719,45 C11.0125467,45 11.0283215,44.9933569 11.0407753,44.9825617 L21.981857,34.0446261 C21.9992923,34.0255271 22.0051041,33.9989545 21.995141,33.9765339 C21.9860082,33.9532829 21.9627611,33.9375054 21.9378535,33.9375054 L11.0590409,33.9375054 Z" id="Fill-16"></path>
                        <path d="M10.9525826,21.9817276 C10.9642062,21.9941861 10.9808113,22 10.9965861,22 C11.0048886,22 11.0131911,21.9991694 11.0206634,21.9958472 C11.0439105,21.9858804 11.0588551,21.9634553 11.0588551,21.9377078 L11.0588551,11.0606627 L21.9376677,11.0606627 C21.9625753,11.0606627 21.9858224,11.044882 21.9949552,11.0216263 C22.0049182,10.9983705 21.9999367,10.9717925 21.9816711,10.9535202 L11.0405895,0.018335671 C11.0223239,6.32982841e-05 10.9949256,-0.00492007608 10.9725087,0.00504667265 C10.9492616,0.014182859 10.9343171,0.037438606 10.9343171,0.0623554779 L10.9343171,10.9352478 L0.0621464611,10.9352478 C0.0372388538,10.9352478 0.0139917537,10.9510285 0.00485896431,10.9742842 C-0.00510407862,10.9967094 0.000707696422,11.024118 0.0181430215,11.0415598 L10.9525826,21.9817276 Z" id="Fill-17"></path>
                        <path d="M32.936323,11.0601527 L32.9263537,21.9377096 C32.9263537,21.9626258 32.9413076,21.9850503 32.9653999,21.9950168 C32.9728769,21.9983389 32.9811846,22 32.9886615,22 C33.0052769,22 33.0210615,21.9933557 33.0335231,21.9817282 L43.9814135,11.0427114 C43.9996905,11.023609 44.0046751,10.9970318 43.9955366,10.9737768 C43.9855674,10.9505217 43.9623058,10.935572 43.9373827,10.935572 L33.0609385,10.935572 L33.0518,0.0621677551 C33.0518,0.0372516134 33.0360154,0.0139965478 33.0127538,0.0048606292 C32.9886615,-0.00510582749 32.9620768,0.000707938909 32.9446307,0.0181492381 L22.0183403,10.9538438 C22.0000633,10.9721157 21.9950787,10.9986929 22.0050479,11.021948 C22.0141864,11.0443725 22.037448,11.0601527 22.0623711,11.0601527 L32.936323,11.0601527 Z" id="Fill-18"></path>
                        <path d="M22.0401812,12.0180585 C22.0169239,11.9939805 21.9753929,11.9939805 21.9521355,12.0180585 L11.0186889,22.9594598 C10.9937704,22.9835378 10.9937704,23.0225609 11.0186889,23.046639 L21.9521355,33.9880402 C22.0127708,34.0071366 22.0285526,34.0004944 22.0401812,33.9880402 L32.981934,23.046639 C33.006022,23.0225609 33.006022,22.9835378 32.981934,22.9594598 L22.0401812,12.0180585 Z" id="Fill-19"></path>
                        <path d="M33.0332305,23.0181458 C33.0149537,23.0007078 32.9875386,22.9948951 32.965108,23.0048597 C32.9418466,23.0148243 32.9268929,23.0372446 32.9268929,23.0629864 L32.9360313,33.9368297 L22.0621845,33.9368297 C22.0372617,33.9368297 22.0140003,33.952607 22.0048619,33.9758577 C21.9948928,33.9991083 22.0007081,34.0256805 22.0181541,34.0431185 L32.9543081,44.9809012 C32.9659387,44.9933569 32.982554,45 32.9983385,45 C33.0066461,45 33.0149537,44.9983392 33.0224306,44.9950177 C33.0465227,44.9850531 33.0614764,44.9626328 33.0614764,44.936891 L33.0614764,34.0622173 L43.9369847,34.0622173 C43.9627383,34.0622173 43.9859997,34.0464401 43.9951381,34.0231894 C44.0051072,34.0007691 43.9992919,33.9733665 43.9818459,33.9550981 L33.0332305,23.0181458 Z" id="Fill-20"></path>
                    </g>
                </g>
            </g>
        </g>
    </g>
</svg>